<?xml version="1.0" encoding="UTF-8" standalone="no"?>
<!-- Created with Inkscape (http://www.inkscape.org/) -->

<svg
   xmlns:dc="http://purl.org/dc/elements/1.1/"
   xmlns:cc="http://creativecommons.org/ns#"
   xmlns:rdf="http://www.w3.org/1999/02/22-rdf-syntax-ns#"
   xmlns:svg="http://www.w3.org/2000/svg"
   xmlns="http://www.w3.org/2000/svg"
   xmlns:xlink="http://www.w3.org/1999/xlink"
   xmlns:sodipodi="http://sodipodi.sourceforge.net/DTD/sodipodi-0.dtd"
   xmlns:inkscape="http://www.inkscape.org/namespaces/inkscape"
   width="60mm"
   height="60mm"
   viewBox="0 0 60 60"
   version="1.1"
   id="svg8"
   inkscape:version="0.92.4 (5da689c313, 2019-01-14)"
   sodipodi:docname="icons.svg"
   inkscape:export-filename="D:\dev\projetos\roblox-ecs\docs\assets\icon-tutorial.png"
   inkscape:export-xdpi="35.98"
   inkscape:export-ydpi="35.98"
   inkscape:label="ghost-color">
  <defs
     id="defs2">
    <linearGradient
       inkscape:collect="always"
       id="linearGradient3089">
      <stop
         style="stop-color:#1b6dff;stop-opacity:1"
         offset="0"
         id="stop3085" />
      <stop
         id="stop3097"
         offset="0.5"
         style="stop-color:#7148fe;stop-opacity:1" />
      <stop
         style="stop-color:#c621ff;stop-opacity:1"
         offset="1"
         id="stop3087" />
    </linearGradient>
    <linearGradient
       inkscape:collect="always"
       xlink:href="#linearGradient3089"
       id="linearGradient3091"
       x1="29.200924"
       y1="-0.13573565"
       x2="29.200924"
       y2="59.800461"
       gradientUnits="userSpaceOnUse" />
    <linearGradient
       inkscape:collect="always"
       xlink:href="#linearGradient3089"
       id="linearGradient3113"
       x1="-16.609022"
       y1="11.449003"
       x2="-16.609022"
       y2="29.991337"
       gradientUnits="userSpaceOnUse" />
    <linearGradient
       inkscape:collect="always"
       xlink:href="#linearGradient3089"
       id="linearGradient3135"
       x1="-51.53207"
       y1="22.271713"
       x2="-51.53207"
       y2="71.273758"
       gradientUnits="userSpaceOnUse" />
    <linearGradient
       inkscape:collect="always"
       xlink:href="#linearGradient3089"
       id="linearGradient3143"
       x1="6.2223449"
       y1="-5.3068438"
       x2="6.2223449"
       y2="20.684031"
       gradientUnits="userSpaceOnUse" />
    <linearGradient
       inkscape:collect="always"
       xlink:href="#linearGradient3089"
       id="linearGradient869"
       gradientUnits="userSpaceOnUse"
       x1="-51.53207"
       y1="22.271713"
       x2="-51.53207"
       y2="71.273758" />
    <linearGradient
       inkscape:collect="always"
       xlink:href="#linearGradient3089"
       id="linearGradient887"
       x1="28.616522"
       y1="1.0503531"
       x2="28.616522"
       y2="47.346581"
       gradientUnits="userSpaceOnUse" />
  </defs>
  <sodipodi:namedview
     id="base"
     pagecolor="#ffffff"
     bordercolor="#666666"
     borderopacity="1.0"
     inkscape:pageopacity="0.0"
     inkscape:pageshadow="2"
     inkscape:zoom="1.979899"
     inkscape:cx="-3.6571366"
     inkscape:cy="143.76409"
     inkscape:document-units="mm"
     inkscape:current-layer="svg8"
     showgrid="false"
     showguides="true"
     inkscape:guide-bbox="true"
     inkscape:window-width="1920"
     inkscape:window-height="1027"
     inkscape:window-x="-8"
     inkscape:window-y="-8"
     inkscape:window-maximized="1"
     fit-margin-top="0"
     fit-margin-left="0"
     fit-margin-right="0"
     fit-margin-bottom="0">
    <sodipodi:guide
       position="1.0263792e-06,60.135644"
       orientation="0,1"
       id="guide825"
       inkscape:locked="false" />
    <sodipodi:guide
       position="1.0263792e-06,14.579772"
       orientation="1,0"
       id="guide851"
       inkscape:locked="false" />
  </sodipodi:namedview>
  <metadata
     id="metadata5">
    <rdf:RDF>
      <cc:Work
         rdf:about="">
        <dc:format>image/svg+xml</dc:format>
        <dc:type
           rdf:resource="http://purl.org/dc/dcmitype/StillImage" />
        <dc:title />
      </cc:Work>
    </rdf:RDF>
  </metadata>
  <g
     id="g868"
     transform="matrix(2.2906228,0,0,2.2906228,12.340272,12.020334)"
     style="display:none;stroke-width:0.43656251"
     sodipodi:insensitive="true">
    <path
       inkscape:connector-curvature="0"
       id="path862"
       d="M -2.873759,18.078532 H -3.054242 L -3.75775,16.785955 -4.461259,15.493379 V 15.066164 14.638948 L -3.932092,14.109782 -3.402925,13.580615 -3.40364,9.8103022 -3.404355,6.0399899 -4.395828,5.5103091 -5.3873,4.9806286 V 4.6252633 4.2698982 L 1.209507,0.944931 7.806314,-2.380036 14.306382,0.9039351 20.80645,4.1879065 v 0.396875 0.396875 l -2.579081,1.3229167 -2.579081,1.3229167 -6.09e-4,0.9860881 -6.08e-4,0.9860882 -0.604307,0.395957 -0.604307,0.3959568 -1.843089,0.26636 -1.843089,0.266359 H 7.709571 4.666862 L 2.823777,10.65794 0.980688,10.39158 0.376382,9.9956232 -0.227925,9.5996662 V 8.5542267 7.5087872 L -1.008536,7.1051177 -1.789147,6.7014482 h -0.277722 -0.277723 v 3.4395828 3.439584 l 0.529167,0.529167 0.529166,0.529166 v 0.427216 0.427215 l -0.703508,1.292576 -0.703508,1.292577 z m 0,-2.116667 h 0.207969 l 0.169273,-0.441118 0.169272,-0.441118 -0.273256,-0.273257 -0.273258,-0.273257 -0.273257,0.273257 -0.273257,0.273257 0.169273,0.441118 0.169273,0.441118 z m 11.58291,-6.2097058 4.306868,-0.06688 0.169,-0.169 0.169,-0.169001 L 13.210325,9.2035842 13.06663,9.0598892 9.925082,8.9020652 6.783533,8.7442403 4.468429,8.9372192 2.153325,9.1301982 v 0.225619 0.225619 l 1.124479,0.118799 1.124479,0.118799 z M 2.351762,8.0928222 3.873117,7.8920733 h 3.836458 3.836458 l 1.521355,0.2007489 1.521354,0.2007486 V 6.9845545 5.6755385 L 13.331971,5.4608892 12.0752,5.2462398 H 7.709575 3.34395 L 2.087179,5.4608892 0.830408,5.6755385 v 1.309016 1.3090163 z M -0.489103,6.1561827 -0.353406,6.1722817 -0.092228,5.5769692 0.16895,4.9816567 1.227283,4.5990867 2.285617,4.2165166 h 5.423958 5.423958 l 1.032518,0.3825701 1.032518,0.38257 0.290399,0.5291667 0.290399,0.5291667 0.03463,0.078727 0.03463,0.078728 1.486724,-0.7291579 1.486723,-0.7291575 V 4.5429842 4.3468383 L 13.5439,1.6876847 8.265725,-0.97146864 H 7.857028 7.44833 L 2.022702,1.7375131 -3.402926,4.4464946 V 4.593208 4.7399213 l 1.389062,0.7000811 1.389063,0.7000815 0.135697,0.0161 z"
       style="fill:url(#linearGradient3143);fill-opacity:1;stroke-width:0.43656251" />
  </g>
  <g
     id="g871"
     inkscape:label="genius"
     transform="matrix(1.2285909,0,0,1.2285909,91.77604,-27.498469)"
     style="display:inline;fill:url(#linearGradient3135);fill-opacity:1;stroke-width:0.81394058"
     sodipodi:insensitive="true">
    <path
       inkscape:connector-curvature="0"
       id="path843"
       d="m -49.084206,68.204552 -2.645428,0.471428 -5.803637,-2.42859 -5.803638,-2.428592 -1.239448,-0.0044 -1.239449,-0.0044 -0.533328,-1.389835 -0.533327,-1.389832 -1.305301,0.50089 -1.305298,0.500889 -2.60359,-3.934292 -2.603594,-3.934292 1.623315,-2.47749 1.623314,-2.477489 2.954796,-1.79692 2.954799,-1.796919 -2.765537,-1.733239 -2.765532,-1.733238 -0.313159,-0.202863 -0.313159,-0.202862 1.465449,-2.749889 1.465452,-2.74989 5.134963,-5.659016 5.134967,-5.659016 2.691718,2.126895 2.691722,2.126898 -0.27353,-1.304244 -0.273529,-1.304248 3.150287,-0.303581 3.150288,-0.30358 0.589945,1.537377 0.58995,1.537381 1.239104,-1.028368 1.239105,-1.028368 1.889208,2.401737 1.889207,2.401737 1.843293,-0.482033 1.843298,-0.482033 3.164435,5.221296 3.164436,5.221296 -0.614308,1.600861 -0.614312,1.600864 h 1.62851 1.628506 l -0.28234,3.277273 -0.28234,3.277251 1.292056,1.556834 1.292059,1.556837 -2.633868,3.453177 -2.633867,3.453181 -1.351767,-0.518723 -1.351771,-0.518723 -0.0106,1.178737 -0.0106,1.178732 -6.29112,2.687097 -6.291121,2.687097 z m -0.227247,-2.1121 1.45091,-0.483542 2.638306,-0.532469 2.63831,-0.532468 1.230784,-1.484218 1.230784,-1.484218 0.02925,-4.928302 0.02925,-4.928307 -1.238348,-1.278182 -1.238344,-1.278182 v -3.199013 -3.199016 l -2.974215,-1.231961 -2.974219,-1.231961 -4.513073,1.401544 -4.513073,1.401541 -0.59864,3.68291 -0.598639,3.682906 -0.90102,0.624709 -0.901025,0.624705 0.03967,5.028813 0.03967,5.028812 0.990643,0.991649 0.990644,0.991649 3.845722,1.408074 3.845722,1.40807 z m -0.967271,-4.217158 h -7.738185 l 0.01499,-0.725453 0.01499,-0.725457 0.870195,-1.374882 0.870194,-1.374883 5.644086,-0.211855 5.644093,-0.211856 1.209091,0.979727 1.20909,0.979731 v 1.332471 1.332471 z m -3.869095,-8.705456 h -0.967271 v -0.967272 -0.967272 h 0.967271 0.967272 v 0.967272 0.967272 z m 7.738185,0 h -0.967272 v -0.967272 -0.967272 h 0.967272 0.967272 v 0.967272 0.967272 z m -10.201881,-3.869091 h -0.438122 v -0.812012 -0.812012 l 2.463696,-1.122535 2.463696,-1.122535 h 0.438123 0.438122 v 0.812012 0.812012 l -2.463696,1.122535 -2.463693,1.122535 z m 11.410971,-0.01499 -1.692728,-0.01499 -1.422894,-0.899869 -1.422899,-0.899865 0.583307,-0.583307 0.583303,-0.583306 2.53232,0.635574 2.53232,0.63557 v 0.862412 0.862415 z m -18.729787,12.58936 h 0.857487 l 0.477609,-3.143637 0.477609,-3.143634 -0.823524,-1.576941 -0.823524,-1.576933 1.906609,-2.198341 1.906609,-2.198338 v -3.187851 -3.188023 l 5.37358,-1.693872 5.373579,-1.693873 4.05733,1.402627 4.057333,1.402623 0.29115,3.869094 0.291151,3.869091 1.474409,1.127174 1.474409,1.127174 -0.218729,2.74192 -0.218692,2.741916 0.145868,2.717086 0.145868,2.717085 0.876464,-0.541685 0.876465,-0.541685 -0.542914,-2.076111 -0.542917,-2.076112 2.660793,0.667815 2.660793,0.667818 1.358384,-1.12736 1.358388,-1.12736 v -1.123921 -1.12392 l -2.918877,-1.724227 -2.918881,-1.724223 0.557782,-0.902509 0.557782,-0.902512 h 1.877461 1.877461 V 47.3662 46.398928 h -2.844733 -2.844736 l -0.571542,-0.924779 -0.571546,-0.92478 2.413607,-1.581456 2.413612,-1.581455 -1.596865,-2.57195 -1.596865,-2.571945 -1.437573,-1.712729 -1.437573,-1.712726 -2.723713,2.609484 -2.723714,2.609483 -0.650852,-0.650852 -0.650852,-0.650848 1.136687,-2.494756 1.136687,-2.494753 -0.652315,-1.055465 -0.652314,-1.055465 -2.256988,2.820678 -2.256988,2.820674 -0.0048,-3.627272 -0.0048,-3.627275 h -1.523807 -1.52381 l 0.175407,2.660003 0.175407,2.66 -0.116877,0.967272 -0.116877,0.967272 -3.30214,-3.869091 -3.302136,-3.86909 -1.71821,1.683826 -1.718209,1.68383 3.289937,3.394355 3.28994,3.394354 -1.398839,-0.01682 -1.39884,-0.01682 -2.277888,-2.401474 -2.277888,-2.40147 -0.623931,0.05352 -0.62393,0.05352 -2.169409,2.751074 -2.169412,2.751071 -0.557848,1.453724 -0.557844,1.453721 2.969076,1.753876 2.969075,1.753875 v 0.572522 0.572522 l -4.352728,3.068086 -4.352729,3.068086 0.03071,1.71266 0.03071,1.712664 1.340872,1.769186 1.340872,1.769186 2.01382,-1.077765 2.013821,-1.077766 v 2.452217 2.452213 z"
       style="fill:url(#linearGradient869);fill-opacity:1;stroke-width:0.24272257" />
  </g>
  <g
     id="g3083"
     style="display:none;stroke-width:0.76729286"
     transform="matrix(1.3032833,0,0,1.3032833,-9.098499,-1.5045513)"
     sodipodi:insensitive="true">
    <path
       inkscape:label="eye_bg"
       sodipodi:nodetypes="ccscccc"
       inkscape:connector-curvature="0"
       id="rect822"
       d="m 14.803883,12.225659 31.997123,0.03341 -0.02341,3.223018 2.965004,-0.05165 0.02504,13.797788 H 14.803883 Z"
       style="opacity:1;fill:#ffffff;fill-opacity:1;stroke:none;stroke-width:0.60903871;stroke-linecap:round;stroke-linejoin:bevel;stroke-miterlimit:4;stroke-dasharray:none;stroke-dashoffset:0;stroke-opacity:1" />
    <path
       sodipodi:nodetypes="ccccccccccccccccccccccccccccccccccccccccccccccccccccccccccccc"
       inkscape:label="body"
       inkscape:connector-curvature="0"
       id="path848"
       d="m 9.891632,45.067407 -2e-6,-2.91042 H 6.981215 l -1e-6,-20.90209 H 9.89163 v -8.995829 h 3.175 V 9.0598892 h 3.439585 V 6.1736577 l 6.879165,-9.1e-6 V 3.263239 h 13.229165 v 2.9104097 h 6.482361 v 2.8862405 h 3.7041 v 3.1991788 h -6.746878 v 3.199049 l -3.439581,0.001 -2e-6,8.4414 h 3.439583 l 2e-6,2.91043 6.746876,-1.7e-4 v -5.55588 l 6.21778,2.3e-4 v 20.90161 h -3.175 v 2.92646 l -6.74688,-0.016 v -2.91042 h -3.042778 v -3.17487 h -3.439583 v 3.17487 l -3.439582,0.0256 v 2.88478 H 26.56038 v -2.91042 h -3.175 v -3.17487 h -3.174998 v 3.17487 h -3.704167 c 0.0062,0.97335 0,1.93706 0,2.91042 -2.204861,-2e-4 -4.409728,0 -6.614589,0 z m 16.66875,-18.25625 -2e-6,-2.91039 h 3.439677 v -8.44265 H 26.56038 v -3.199049 h -6.349998 v 3.199049 h -3.704167 l 2e-6,8.4425 3.704165,1.5e-4 v 2.91026 z"
       style="fill:#fb860c;fill-opacity:1;stroke-width:0.76729286" />
    <path
       style="display:inline;fill:#020202;stroke-width:0.76729286"
       d="m 23.38538,23.900767 v -5.55629 h 6.614677 v 5.55629 z"
       id="path906"
       inkscape:connector-curvature="0"
       inkscape:label="eye_r"
       sodipodi:nodetypes="ccccc" />
    <path
       sodipodi:nodetypes="ccccc"
       inkscape:label="eye_l"
       inkscape:connector-curvature="0"
       id="path910"
       d="m 43.493616,23.900737 v -5.55629 h 6.61468 v 5.55629 z"
       style="display:inline;fill:#020202;stroke-width:0.76729286" />
  </g>
  <g
     id="g3056"
     transform="matrix(3.2179835,0,0,3.2179835,81.243586,-36.978346)"
     style="display:none;stroke-width:0.31075361"
     sodipodi:insensitive="true">
    <path
       style="display:inline;fill:url(#linearGradient3113);fill-opacity:1;stroke-width:0.31075361"
       d="m -20.934786,28.155951 -0.7073,0.08176 -0.712455,-1.215713 -0.712456,-1.215713 -0.498474,-1.6016 -0.498473,-1.6016 0.0086,-1.365489 0.0086,-1.36549 0.454383,-1.322916 0.454383,-1.322917 -0.460665,-0.923126 -0.460665,-0.923127 -0.593715,-0.44784 -0.593715,-0.447841 0.18809,-0.18809 0.188091,-0.188091 0.361741,0.300219 0.361742,0.300219 0.300438,-0.659391 0.300439,-0.65939 h 0.481922 0.481922 l 0.3175,0.3175 0.3175,0.3175 v 0.481922 0.481923 l -0.661458,0.30138 -0.661458,0.301381 0.004,0.155968 0.0041,0.155967 0.226336,0.35716 0.226336,0.35716 1.135827,-0.822788 1.135827,-0.822789 1.327641,-0.394267 1.327642,-0.394267 h 1.247025 1.247025 l 1.722082,0.531897 1.722084,0.531897 1.303983,1.172394 1.3039843,1.172394 0.8093927,-0.492221 0.8093924,-0.492221 0.1847157,-0.298876 0.1847154,-0.298876 0.3733199,0.309827 0.3733196,0.309828 v 0.791815 0.791814 l -0.9313806,0.853112 -0.9313807,0.853111 0.5537092,0.703928 0.5537091,0.703927 h 0.3776715 0.3776715 v 0.674597 0.674598 l -0.3839442,0.742466 -0.3839443,0.742466 -1.3280233,0.571301 -1.3280232,0.5713 -1.185348,0.16247 -1.185347,0.16247 -0.07925,1.222603 -0.07925,1.222603 h -0.79375 -0.79375 l -0.79375,-1.216519 -0.79375,-1.216519 -1.5875,-0.305654 -1.5875,-0.305653 -0.581976,-0.158844 -0.581977,-0.158845 -0.07948,1.681017 -0.07948,1.681017 z m -0.08264,-0.478636 h 0.393066 v -1.882941 -1.882943 l 0.595312,0.189053 0.595313,0.189054 1.5875,0.365458 1.5875,0.365458 0.755911,0.0055 0.755912,0.0055 -0.14023,0.365433 -0.140229,0.365432 0.650627,0.957484 0.650627,0.957484 h 0.420999 0.421 l -0.123916,-1.289618 -0.123916,-1.289619 1.566655,-0.163748 1.5666549,-0.163748 1.2167364,-0.606778 1.2167367,-0.606777 0.2226961,-0.668088 0.2226958,-0.668088 -1.0637509,-1.15225 -1.0637512,-1.15225 v -0.213765 -0.213765 l 0.8052207,-0.416395 0.805221,-0.416396 0.2960915,-0.64985 0.2960915,-0.64985 -0.1419249,-0.141925 -0.1419249,-0.141925 -1.0255331,0.574142 -1.0255335,0.574142 -0.7221191,0.809108 -0.72212,0.809107 -0.185127,-0.185127 -0.185128,-0.185128 0.62101,-0.83996 0.6210094,-0.839961 -1.1189134,-0.992949 -1.118913,-0.992948 -1.288358,-0.427924 -1.288359,-0.427924 -1.275241,-0.123517 -1.275241,-0.123516 -1.27707,0.302197 -1.27707,0.302196 -0.142097,0.370301 -0.142098,0.3703 -0.300624,-0.0602 -0.300624,-0.0602 -0.587011,0.32496 -0.587011,0.32496 -0.687589,1.173282 -0.687589,1.173282 -0.148282,1.436714 -0.148282,1.436715 0.334864,1.420033 0.334863,1.420033 0.761098,1.521354 0.761098,1.521354 z m 7.007649,-2.116666 h -0.264583 v -0.264583 -0.264584 h 0.264583 0.264583 v 0.264584 0.264583 z m -2.116667,-1.058333 h -0.264583 v -0.264584 -0.264583 h 0.264583 0.264584 v 0.264583 0.264584 z m 3.175,0 h -0.264583 v -0.264584 -0.264583 h 0.264583 0.264584 v 0.264583 0.264584 z m -8.466666,-0.529167 h -0.352778 l 0.176389,-0.176389 0.176389,-0.176389 0.176389,0.176389 0.176389,0.176389 z m -1.20624,-0.264583 h -0.116677 v -0.264584 -0.264583 h 0.280198 0.280199 l -0.163522,0.264583 -0.163521,0.264584 z m 2.264573,-0.264584 h -0.264583 v -0.264583 -0.264583 h 0.264583 0.264583 v 0.264583 0.264583 z m 4.233333,0 h -0.264583 v -0.264583 -0.264583 h 0.264583 0.264584 v 0.264583 0.264583 z m 3.175,0 h -0.264583 v -0.264583 -0.264583 h 0.264583 0.264584 v 0.264583 0.264583 z m -7.408333,-1.058333 h -0.264583 v -0.264583 -0.264584 h 0.264583 0.264583 v 0.264584 0.264583 z m 4.233333,0 h -0.264583 v -0.264583 -0.264584 h 0.264583 0.264584 v 0.264584 0.264583 z m 3.175,0 h -0.264583 v -0.264583 -0.264584 h 0.264583 0.264584 v 0.264584 0.264583 z m -7.408333,-1.058333 h -0.264583 v -0.264584 -0.264583 h 0.264583 0.264583 v 0.264583 0.264584 z m 4.233333,0 h -0.264583 v -0.264584 -0.264583 h 0.264583 0.264584 v 0.264583 0.264584 z m 3.175,0 h -0.264583 v -0.264584 -0.264583 h 0.264583 0.264584 v 0.264583 0.264584 z m -7.408333,-1.058334 h -0.264583 v -0.264583 -0.264583 h 0.264583 0.264583 v 0.264583 0.264583 z m 1.058333,0 h -0.264583 v -0.264583 -0.264583 h 0.264583 0.264584 v 0.264583 0.264583 z m 1.058334,0 h -0.264584 v -0.264583 -0.264583 h 0.264584 0.264583 v 0.264583 0.264583 z m 1.058333,0 h -0.264583 v -0.264583 -0.264583 h 0.264583 0.264583 v 0.264583 0.264583 z m 1.058333,0 h -0.264583 v -0.264583 -0.264583 h 0.264583 0.264584 v 0.264583 0.264583 z m 1.058334,0 h -0.264584 v -0.264583 -0.264583 h 0.264584 0.264583 v 0.264583 0.264583 z m 1.058333,0 h -0.264583 v -0.264583 -0.264583 h 0.264583 0.264583 v 0.264583 0.264583 z m 1.058333,0 h -0.264583 v -0.264583 -0.264583 h 0.264583 0.264584 v 0.264583 0.264583 z m -7.408333,-1.058333 h -0.264583 v -0.264583 -0.264584 h 0.264583 0.264583 v 0.264584 0.264583 z m 4.233333,0 h -0.264583 v -0.264583 -0.264584 h 0.264583 0.264584 v 0.264584 0.264583 z m 3.351389,-0.08819 -0.176389,0.176388 V 18.94607 18.593292 l 0.176389,0.176389 0.176389,0.176389 z m -7.584722,-0.970139 h -0.264583 v -0.264584 -0.264583 h 0.264583 0.264583 v 0.264583 0.264584 z m 4.233333,0 h -0.264583 v -0.264584 -0.264583 h 0.264583 0.264584 v 0.264583 0.264584 z m 3.439584,0 h -0.264584 v -0.264584 -0.264583 h 0.264584 0.264583 v 0.264583 0.264584 z m -7.672917,-1.058334 H -20.62436 V 16.829403 16.56482 h 0.264583 0.264583 v 0.264583 0.264583 z m 4.233333,0 h -0.264583 V 16.829403 16.56482 h 0.264583 0.264584 v 0.264583 0.264583 z m 3.96875,0 h -0.264583 V 16.813788 16.53359 l 0.264583,0.163521 0.264584,0.163522 v 0.116677 0.116676 z m -3.96875,-1.058333 h -0.264583 V 15.77107 15.506487 h 0.264583 0.264584 v 0.264583 0.264583 z m -7.209895,-1.062385 0.198437,-0.0041 0.394664,-0.249515 0.394663,-0.249514 -0.339535,-0.339535 -0.339535,-0.339535 -0.249514,0.394664 -0.249515,0.394663 -0.0041,0.198437 -0.0041,0.198438 0.198438,-0.0041 z"
       id="path3058"
       inkscape:connector-curvature="0" />
  </g>
  <g
     id="g3073"
     style="display:none"
     transform="translate(-0.08028549,9.1999816e-5)"
     sodipodi:insensitive="true">
    <path
       style="display:inline;fill:url(#linearGradient3091);fill-opacity:1;stroke-width:0.99999994"
       d="M 19.88641,59.820595 16.793096,59.999908 16.461711,59.463711 16.130323,58.927515 15.730805,56.429066 15.331287,53.930617 14.000008,53.596485 12.66873,53.262356 10.36363,54.82664 8.0585291,56.390924 5.6773415,54.009736 3.2961563,51.628551 4.9525094,49.456959 6.6088626,47.285368 6.2578012,45.886626 5.9067397,44.487889 3.0544588,43.966791 0.20217998,43.445694 V 40.154711 36.863728 L 3.0638447,36.311007 5.9255092,35.758286 6.2640245,34.409541 6.6025374,33.060792 5.049966,30.775981 3.4973968,28.491167 5.856147,26.132416 l 2.3587501,-2.358752 2.1715919,1.656356 2.171592,1.656352 1.361349,-0.341677 1.361348,-0.341676 0.552721,-2.861667 0.552721,-2.861664 h 3.277792 3.27779 l 0.531713,2.69734 0.531712,2.69734 0.686065,0.440378 0.686063,0.440378 0.899113,-0.01246 0.899114,-0.01246 1.772801,-1.448846 1.772803,-1.448844 -1.081684,-2.268314 -1.081685,-2.268311 1.856371,-1.549768 1.856368,-1.549764 V 15.58455 14.772741 l -1.835793,-1.542176 -1.835792,-1.542174 0.9564,-2.2757296 0.956401,-2.2757316 2.827472,0.1777947 2.827471,0.1777956 L 35.988921,4.6650485 35.811125,1.8375768 38.010204,0.9187424 40.209286,-9.1999632e-5 h 0.396968 0.396969 L 42.065463,1.7981347 43.1277,3.5963614 h 1.149537 1.149539 L 46.356674,1.7981347 47.286573,-9.1999632e-5 h 0.603269 0.603269 L 50.570399,0.86785501 52.64769,1.735802 l -0.148456,2.8783591 -0.148458,2.878359 2.856717,-0.2002689 2.856717,-0.200269 0.947089,2.2667044 0.947092,2.2667014 -1.861132,1.530009 -1.861133,1.530012 0.0055,0.919727 0.0055,0.91973 1.798226,1.062239 1.798227,1.062239 v 0.492317 0.492318 l -0.905022,2.166026 -0.905024,2.166026 -2.841264,-0.144742 -2.841282,-0.144741 0.196553,2.81963 0.196554,2.819631 -2.286518,0.955367 -2.286517,0.955371 -1.506501,-1.832325 -1.506498,-1.832325 -1.033572,0.0055 -1.033575,0.0055 -0.945671,1.828726 -0.945671,1.828729 -1.317505,-0.406142 -1.317505,-0.406142 -1.513205,-0.768671 -1.513203,-0.768672 -1.382504,2.109029 -1.382502,2.10903 0.333747,1.329754 0.333746,1.329752 2.861666,0.552721 2.861665,0.552721 v 3.290983 3.290983 l -2.852281,0.521098 -2.852281,0.521097 -0.351061,1.398738 -0.351062,1.398741 1.656353,2.171591 1.656356,2.171593 -2.358753,2.35875 -2.35875,2.35875 -2.284813,-1.552569 -2.284812,-1.552572 -1.348748,0.338513 -1.348746,0.338516 -0.552721,2.861664 -0.552722,2.861665 z m -0.227179,-2.27725 h 1.094296 l 0.363835,-0.948138 0.363834,-0.948139 V 54.17627 52.705471 l 2.740823,-1.174855 2.740825,-1.174854 1.941221,1.480641 1.941222,1.480642 0.99712,-0.997121 0.997121,-0.99712 -1.568138,-2.055937 -1.568138,-2.055937 1.275861,-2.626109 1.275864,-2.626108 h 1.457287 1.45729 l 0.948138,-0.363835 0.948136,-0.363836 V 40.160486 39.089928 L 36.117692,38.726093 35.169554,38.36226 h -1.437318 -1.437314 l -1.252554,-2.455211 -1.252554,-2.455207 1.494043,-2.257651 1.494043,-2.257651 -0.966305,-0.966308 -0.966308,-0.966304 -1.941222,1.480639 -1.941221,1.480642 -2.740825,-1.174853 -2.740823,-1.174855 v -1.470799 -1.4708 l -0.363834,-0.948139 -0.363835,-0.948136 h -1.123266 -1.12327 l -0.287787,1.348669 -0.287786,1.34867 -0.173196,1.141888 -0.173196,1.141887 -2.484122,1.054406 -2.48412,1.054405 -2.256226,-1.533145 -2.2562254,-1.533145 -0.7750352,1.059926 -0.7750374,1.059926 1.40418,2.066438 1.4041823,2.066437 -0.9298152,2.367078 -0.9298152,2.367078 -1.5524808,0.342768 -1.5524831,0.342769 -1.048966,0.284387 -1.0489659,0.284384 v 1.147006 1.147005 l 1.3486712,0.287787 1.3486689,0.287786 1.1418893,0.173196 1.141887,0.173196 1.0544031,2.484122 1.0544055,2.48412 -1.4213208,2.091664 -1.4213228,2.091665 1.0232572,0.90951 1.023255,0.909509 1.9878473,-1.375442 1.987848,-1.375445 2.370515,0.931166 2.370515,0.931165 0.34277,1.552481 0.342769,1.552483 0.284384,1.048966 0.284386,1.048966 z M 19.562884,47.329392 17.585039,47.3054 15.944198,46.41509 14.303358,45.524781 13.39671,43.771517 12.490062,42.018251 v -1.857766 -1.857761 l 0.90926,-1.758314 0.909259,-1.758313 1.758315,-0.909261 1.758314,-0.909258 h 1.857759 1.857761 l 1.758314,0.909258 1.758312,0.909261 0.909261,1.758313 0.909258,1.758314 v 1.857761 1.857759 l -0.909258,1.758314 -0.909261,1.758315 -1.758312,0.909259 -1.758314,0.90926 z m 0.03609,-2.373636 h 2.104668 l 1.387302,-1.303303 1.387302,-1.303303 v -2.104664 -2.104668 l -1.303303,-1.387302 -1.303305,-1.387302 h -2.104664 -2.104666 l -1.387302,1.303303 -1.387302,1.303305 v 2.104664 2.104666 l 1.303303,1.387302 1.303303,1.387302 z m 16.37455,-17.534667 0.474544,-0.747303 0.0093,-1.313296 0.0093,-1.313296 -0.614035,-0.379493 -0.614034,-0.379493 -1.84249,0.404678 -1.842487,0.404679 1.9728,2.035413 1.972801,2.035414 z m 3.576028,0.751218 h 0.485691 l 0.941051,-1.436226 0.941052,-1.436227 2.13925,-0.249744 2.139252,-0.249747 0.816448,0.816448 0.816446,0.816448 0.533707,0.95368 0.533707,0.953679 0.696729,-0.430602 0.696728,-0.430602 -0.358145,-1.90908 -0.358145,-1.909081 1.56815,-1.4732 1.568151,-1.473201 2.068352,0.178203 2.068352,0.178203 V 20.439735 19.808218 L 55.347809,18.826349 53.849288,17.84448 V 15.5296 13.214719 l 1.498521,-0.981869 1.498522,-0.981869 V 10.393645 9.536307 L 54.714881,9.9361697 52.583433,10.336031 51.084268,8.9276422 49.585106,7.5192511 49.762878,5.4559129 49.940651,3.3925748 49.235837,3.1576373 48.531024,2.9226998 47.524769,4.4584364 46.518515,5.994175 H 44.239811 41.961107 L 40.802936,4.4042594 39.644762,2.8143438 38.974347,3.2286825 38.303932,3.643024 l 0.360184,1.8009267 0.360187,1.8009277 -1.415507,1.5067379 -1.415508,1.5067407 -2.063338,-0.177773 -2.06334,-0.1777712 -0.219865,0.6595742 -0.219865,0.659575 1.520658,0.996375 1.520659,0.996373 v 2.333823 2.333823 l -1.589916,1.158173 -1.589917,1.158174 0.402082,0.650581 0.40208,0.650581 1.937096,-0.297125 1.937096,-0.297125 1.609827,1.523925 1.609825,1.523922 -0.506077,1.764594 -0.506079,1.764595 0.344822,0.344822 0.344825,0.344825 z m 4.589102,-6.614738 -1.378435,-0.02129 -1.432546,-0.793999 -1.432544,-0.793997 -0.793997,-1.432544 -0.794,-1.432546 -0.02129,-1.994187 -0.02129,-1.994189 1.752117,-1.752117 1.75212,-1.7521194 h 2.489851 2.489854 l 1.752117,1.7521194 1.75212,1.752117 v 2.183447 2.183445 l -0.617178,1.153209 -0.617179,1.153207 -1.75069,0.905318 -1.750692,0.905317 z m 0.222742,-2.376396 h 1.301474 l 1.096161,-0.992014 1.096163,-0.992014 V 15.688868 14.180592 L 46.86318,13.084429 45.871166,11.988266 h -1.508277 -1.508274 l -1.096166,0.992014 -1.096162,0.992014 v 1.405621 1.405623 l 1.198819,1.198816 1.198816,1.198819 z"
       id="path3075"
       inkscape:connector-curvature="0" />
  </g>
  <g
     transform="matrix(1.3032833,0,0,1.3032833,-9.098499,-1.5045513)"
     style="display:none;stroke-width:0.76729286"
     id="g879"
     sodipodi:insensitive="true">
    <path
       style="opacity:1;fill:#ffffff;fill-opacity:1;stroke:none;stroke-width:0.60903871;stroke-linecap:round;stroke-linejoin:bevel;stroke-miterlimit:4;stroke-dasharray:none;stroke-dashoffset:0;stroke-opacity:1"
       d="m 14.803883,12.225659 31.997123,0.03341 -0.02341,3.223018 2.965004,-0.05165 0.02504,13.797788 H 14.803883 Z"
       id="path871"
       inkscape:connector-curvature="0"
       sodipodi:nodetypes="ccscccc"
       inkscape:label="eye_bg" />
    <path
       style="fill:url(#linearGradient887);fill-opacity:1;stroke:none;stroke-width:0.76729286;stroke-opacity:1"
       d="m 9.891632,45.067407 -2e-6,-2.91042 H 6.981215 l -1e-6,-20.90209 H 9.89163 v -8.995829 h 3.175 V 9.0598892 h 3.439585 V 6.1736577 l 6.879165,-9.1e-6 V 3.263239 h 13.229165 v 2.9104097 h 6.482361 v 2.8862405 h 3.7041 v 3.1991788 h -6.746878 v 3.199049 l -3.439581,0.001 -2e-6,8.4414 h 3.439583 l 2e-6,2.91043 6.746876,-1.7e-4 v -5.55588 l 6.21778,2.3e-4 v 20.90161 h -3.175 v 2.92646 l -6.74688,-0.016 v -2.91042 h -3.042778 v -3.17487 h -3.439583 v 3.17487 l -3.439582,0.0256 v 2.88478 H 26.56038 v -2.91042 h -3.175 v -3.17487 h -3.174998 v 3.17487 h -3.704167 c 0.0062,0.97335 0,1.93706 0,2.91042 -2.204861,-2e-4 -4.409728,0 -6.614589,0 z m 16.66875,-18.25625 -2e-6,-2.91039 h 3.439677 v -8.44265 H 26.56038 v -3.199049 h -6.349998 v 3.199049 h -3.704167 l 2e-6,8.4425 3.704165,1.5e-4 v 2.91026 z"
       id="path873"
       inkscape:connector-curvature="0"
       inkscape:label="body"
       sodipodi:nodetypes="ccccccccccccccccccccccccccccccccccccccccccccccccccccccccccccc" />
    <path
       sodipodi:nodetypes="ccccc"
       inkscape:label="eye_r"
       inkscape:connector-curvature="0"
       id="path875"
       d="m 23.38538,23.900767 v -5.55629 h 6.614677 v 5.55629 z"
       style="display:inline;fill:#020202;stroke-width:0.76729286" />
    <path
       style="display:inline;fill:#020202;stroke-width:0.76729286"
       d="m 43.493616,23.900737 v -5.55629 h 6.61468 v 5.55629 z"
       id="path877"
       inkscape:connector-curvature="0"
       inkscape:label="eye_l"
       sodipodi:nodetypes="ccccc" />
  </g>
</svg>
